# xmcd
#
# Track frame offsets:
# 150
# 34348
# 77919
# 120403
# 165425
# 210053
# 254865
# 280393
# 308792
# 333430
#
# Disc length: 4787 seconds
#
#
# Revision: 0
# Processed by: cddbd v1.5.2PL0 Copyright (c) Steve Scherf et al.
# Submitted via: FreeRIP 2.96 
#
DISCID=8712b10a
DTITLE=Jamet, Nicole und Le Pezennec, Marie-Anne - Killmore ... was niemand wissen darf
DYEAR=2008
DGENRE=Speech
TTITLE0=12 Kilmore
TTITLE1=13 Kilmore
TTITLE2=14 Kilmore
TTITLE3=15 Kilmore
TTITLE4=16 Kilmore
TTITLE5=17 Kilmore
TTITLE6=18 Kilmore
TTITLE7=19 Kilmore
TTITLE8=20 Kilmore
TTITLE9=21 Kilmore
EXTD=gelesen von Viola Sauer
EXTT0=
EXTT1=
EXTT2=
EXTT3=
EXTT4=
EXTT5=
EXTT6=
EXTT7=
EXTT8=
EXTT9=
PLAYORDER=
